<?xml version="1.0" standalone="no"?>
<!DOCTYPE svg PUBLIC "-//W3C//DTD SVG 20010904//EN"
 "http://www.w3.org/TR/2001/REC-SVG-20010904/DTD/svg10.dtd">
<svg version="1.0" xmlns="http://www.w3.org/2000/svg"
 width="1000.000000pt" height="1000.000000pt" viewBox="0 0 1000.000000 1000.000000"
 preserveAspectRatio="xMidYMid meet">
<metadata>
Created by potrace 1.14, written by Peter Selinger 2001-2017
</metadata>
<g transform="translate(0.000000,1000.000000) scale(0.100000,-0.100000)"
fill="#000000" stroke="none">
<path d="M4864 9092 c-136 -1 -252 -6 -258 -11 -21 -17 -166 -34 -166 -19 0 4
-7 8 -15 8 -8 0 -15 -4 -15 -9 0 -11 -42 -23 -99 -27 -23 -2 -48 -7 -55 -12
-6 -5 -22 -9 -35 -10 -13 0 -27 -5 -30 -9 -3 -4 -24 -9 -46 -11 -22 -2 -44 -7
-50 -13 -5 -5 -15 -9 -22 -9 -8 0 -33 -9 -55 -20 -23 -11 -48 -20 -55 -20 -7
0 -13 -4 -13 -10 0 -5 -3 -9 -7 -8 -18 4 -103 -15 -103 -23 0 -5 -5 -9 -11 -9
-30 0 -186 -79 -221 -112 -10 -10 -24 -18 -32 -18 -8 0 -17 -8 -20 -18 -4 -11
-18 -25 -31 -32 -14 -7 -25 -17 -25 -22 0 -4 -5 -8 -11 -8 -7 0 -18 -8 -25
-17 -7 -10 -17 -18 -22 -18 -6 0 -19 -10 -30 -23 -11 -13 -23 -23 -26 -23 -27
3 -36 -2 -36 -19 0 -11 -3 -19 -7 -19 -27 4 -43 -3 -43 -20 0 -10 -7 -21 -15
-25 -8 -3 -15 -12 -15 -21 0 -8 -4 -15 -10 -15 -12 0 -60 -48 -60 -60 0 -5
-12 -17 -26 -27 -14 -9 -30 -26 -35 -37 -14 -32 -33 -60 -46 -69 -7 -4 -13
-17 -13 -27 0 -11 -8 -24 -19 -29 -10 -6 -22 -22 -25 -35 -3 -14 -17 -37 -31
-52 -14 -15 -25 -38 -25 -52 0 -13 -15 -50 -34 -81 -18 -31 -39 -73 -46 -93
-6 -21 -15 -38 -20 -38 -4 0 -11 -16 -15 -36 -4 -24 -13 -38 -26 -41 -14 -4
-18 -11 -14 -24 4 -12 -4 -38 -19 -65 -14 -26 -26 -55 -26 -65 0 -21 -67 -189
-81 -203 -5 -6 -9 -21 -9 -33 0 -13 -6 -36 -14 -51 -8 -15 -17 -58 -20 -97 -8
-88 -14 -135 -28 -205 -6 -30 -13 -71 -17 -90 -11 -63 -19 -69 -80 -59 -47 7
-65 4 -145 -23 -93 -32 -201 -82 -211 -98 -8 -12 22 -70 39 -76 7 -3 49 -1 93
3 73 8 84 7 124 -14 24 -13 61 -26 82 -29 l39 -7 -5 -51 c-2 -28 -7 -67 -11
-86 -3 -19 -9 -53 -12 -75 -3 -24 -20 -59 -42 -90 -66 -88 -82 -114 -82 -129
0 -9 -9 -20 -20 -26 -11 -6 -20 -17 -20 -24 0 -8 -16 -38 -35 -68 -20 -29 -58
-100 -86 -158 -28 -58 -54 -112 -58 -120 -4 -8 -20 -55 -35 -105 -15 -49 -31
-97 -36 -105 -19 -29 -72 -202 -75 -242 -1 -15 -7 -34 -15 -43 -7 -8 -10 -18
-7 -21 3 -3 0 -22 -7 -42 -19 -54 -89 -340 -105 -427 -24 -135 -53 -275 -65
-320 -8 -27 -20 -77 -26 -110 -7 -33 -16 -71 -20 -85 -24 -72 -100 -339 -100
-349 0 -7 -11 -40 -24 -74 -21 -57 -31 -88 -58 -187 -6 -19 -19 -54 -30 -77
-17 -35 -18 -46 -8 -58 29 -35 91 -2 103 55 3 14 15 57 26 95 12 39 23 77 25
85 2 8 9 26 14 40 5 14 20 66 32 115 12 50 24 97 27 105 3 8 8 31 10 50 2 19
9 40 14 47 6 7 8 17 5 22 -4 6 -2 18 3 28 9 16 51 224 66 328 3 22 12 63 20
90 8 28 16 73 19 100 3 28 10 73 16 100 5 28 15 79 20 115 6 36 13 74 17 85 4
11 8 22 8 25 9 40 85 281 96 305 5 11 22 58 39 105 17 46 36 90 42 97 6 7 7
13 4 13 -7 0 -2 8 32 62 9 15 41 67 71 115 78 127 211 287 226 272 3 -4 0 -30
-6 -60 -13 -61 -18 -338 -6 -416 4 -29 14 -80 22 -115 8 -35 15 -103 15 -153
0 -49 5 -155 10 -235 5 -80 13 -206 16 -280 3 -74 8 -169 12 -210 8 -111 8
-451 -1 -480 -12 -42 -35 -85 -57 -105 -11 -10 -20 -24 -20 -32 0 -17 -100
-143 -113 -143 -12 0 -47 -39 -47 -52 0 -9 -77 -115 -96 -133 -6 -5 -24 -28
-40 -50 -16 -21 -36 -47 -44 -56 -31 -36 -40 -48 -40 -57 0 -4 -13 -21 -30
-37 -16 -16 -28 -31 -25 -33 6 -6 -40 -42 -54 -42 -6 0 -11 -9 -11 -20 0 -11
-4 -20 -10 -20 -5 0 -10 -7 -10 -15 0 -9 -11 -20 -24 -25 -13 -5 -27 -18 -31
-29 -3 -11 -14 -22 -23 -25 -10 -3 -26 -19 -35 -36 -10 -16 -26 -30 -36 -30
-12 0 -21 -10 -25 -25 -4 -14 -13 -25 -21 -25 -8 0 -18 -6 -22 -14 -13 -22
-111 -96 -128 -96 -8 0 -15 -6 -15 -12 0 -15 -194 -148 -215 -148 -8 0 -15 -4
-15 -8 0 -5 -17 -17 -37 -28 -62 -31 -68 -49 -21 -59 18 -4 36 -12 39 -17 8
-13 309 -13 374 0 28 5 78 17 112 26 35 10 71 19 80 21 10 1 34 10 53 18 152
66 296 119 323 121 29 1 32 -2 35 -32 2 -18 -2 -40 -9 -48 -15 -18 -14 -71 2
-90 6 -8 8 -14 5 -14 -4 0 0 -7 9 -16 9 -9 14 -23 11 -30 -3 -8 -1 -14 4 -14
6 0 10 -5 10 -11 0 -13 25 -39 39 -39 5 0 13 -5 17 -12 5 -7 3 -8 -7 -3 -8 5
1 -8 19 -29 41 -47 39 -71 -15 -157 -21 -33 -43 -68 -49 -79 -6 -11 -18 -28
-26 -37 -45 -52 -65 -162 -39 -211 6 -11 18 -42 26 -68 35 -107 106 -227 176
-299 38 -39 69 -76 69 -83 0 -6 4 -12 10 -12 16 0 24 -69 9 -86 -8 -9 -12 -28
-11 -41 2 -14 -4 -33 -13 -43 -14 -16 -17 -43 -19 -163 l-1 -145 32 -44 c18
-25 33 -51 35 -59 2 -8 20 -27 40 -42 21 -16 38 -33 38 -38 0 -6 5 -7 10 -4 6
3 10 -1 10 -9 0 -11 10 -16 30 -16 17 0 33 -6 36 -14 3 -8 11 -13 19 -10 7 3
19 -2 28 -10 8 -8 17 -13 20 -10 3 3 14 1 25 -5 17 -9 65 -17 177 -27 22 -2
56 -6 75 -8 23 -3 52 3 85 19 28 13 65 26 83 30 17 4 32 11 32 16 0 5 4 9 9 9
5 0 23 13 39 30 17 16 40 30 51 30 14 0 21 6 21 18 0 10 11 33 25 52 14 19 25
42 25 52 0 9 9 22 20 28 11 6 20 17 20 24 0 8 24 38 53 69 63 66 70 75 114
141 19 28 41 58 48 66 7 8 18 33 25 55 7 22 16 45 21 50 4 6 9 31 11 55 l3 45
49 -3 c28 -2 57 -7 66 -12 9 -5 28 -11 41 -14 13 -3 49 -10 79 -16 30 -6 73
-13 95 -15 46 -6 247 -34 287 -41 15 -2 38 -8 52 -14 15 -5 26 -7 26 -4 0 4
10 0 23 -8 12 -8 36 -18 52 -20 17 -3 59 -18 95 -34 79 -34 135 -43 305 -50
104 -5 142 -2 190 11 33 9 77 21 97 26 20 5 79 29 131 54 52 25 104 45 114 45
21 0 89 -44 133 -86 35 -33 117 -101 134 -111 7 -4 30 -34 51 -66 44 -71 66
-97 80 -97 5 -1 22 -19 38 -41 20 -29 26 -46 21 -66 -6 -22 -4 -25 10 -20 28
11 66 -3 66 -24 0 -14 7 -19 25 -19 15 0 28 -7 32 -17 4 -10 13 -24 21 -32 7
-7 11 -20 8 -28 -3 -8 -1 -11 4 -8 6 3 10 1 10 -5 0 -6 4 -9 9 -6 5 3 30 -6
57 -20 32 -16 66 -25 99 -26 28 0 57 -4 66 -9 9 -5 19 -5 23 -2 4 4 17 9 29
11 12 2 27 5 32 6 6 2 29 7 53 11 23 4 42 12 42 17 0 5 4 7 9 4 5 -4 11 -2 13
2 1 5 21 15 43 24 32 12 54 34 108 109 37 52 70 105 73 119 3 14 12 41 20 60
11 25 13 53 8 100 -3 36 -7 103 -9 150 -4 106 -21 159 -62 194 -18 15 -33 36
-33 46 0 10 -9 20 -19 23 -20 5 -58 73 -47 84 3 4 24 -11 46 -32 54 -53 55
-21 1 49 -36 48 -60 96 -46 96 3 0 34 -24 69 -52 85 -70 126 -95 173 -102 45
-8 76 9 182 102 64 57 107 128 96 161 -6 19 -73 91 -85 91 -4 0 -27 26 -51 59
-59 81 -120 120 -222 142 -45 10 -108 19 -140 19 -52 0 -58 2 -67 25 -5 14
-41 72 -80 130 -38 58 -70 108 -70 111 0 3 -11 17 -25 32 -14 15 -23 33 -20
40 3 7 1 11 -4 8 -12 -8 -38 24 -46 55 -4 18 -1 30 10 39 15 13 21 10 52 -25
112 -126 262 -268 371 -352 54 -41 244 -71 277 -43 8 7 15 9 15 5 0 -4 15 7
33 25 27 27 37 31 66 26 19 -3 43 -14 55 -24 21 -19 85 -44 158 -62 20 -6 61
-19 90 -30 29 -11 76 -21 103 -22 28 -2 53 -7 56 -12 9 -12 29 2 29 20 0 8 -9
14 -20 14 -11 0 -20 5 -20 10 0 6 -50 61 -111 122 -61 61 -117 124 -124 138
-8 15 -21 33 -30 40 -24 20 -67 108 -64 133 1 12 -2 41 -6 64 -4 24 -7 45 -6
48 1 3 -5 13 -14 22 -9 8 -15 23 -13 31 4 19 -28 55 -56 65 -10 4 -16 10 -13
14 4 3 2 12 -4 19 -13 16 -17 55 -23 192 -3 88 -1 103 12 100 8 -2 23 -18 33
-37 10 -19 22 -37 27 -40 5 -3 27 -33 49 -66 22 -33 66 -87 97 -120 31 -33 56
-63 56 -67 0 -4 9 -10 20 -13 11 -3 20 -13 20 -21 0 -8 5 -14 11 -14 6 0 24
-11 41 -25 16 -14 35 -25 43 -25 7 0 15 -7 19 -15 3 -8 12 -15 20 -15 22 0 76
-33 76 -47 0 -7 9 -13 20 -13 11 0 28 -4 38 -9 135 -68 345 -129 457 -133 33
-1 65 -5 71 -10 6 -4 90 -8 188 -9 193 -1 266 11 266 43 0 12 -8 18 -21 18
-24 0 -99 39 -99 52 0 4 -7 8 -15 8 -8 0 -15 3 -15 8 0 4 -15 14 -32 21 -18 8
-43 25 -55 37 -13 13 -40 31 -60 40 -21 10 -46 24 -55 32 -10 8 -18 12 -18 8
0 -4 -12 5 -27 19 -16 15 -38 31 -50 36 -13 4 -23 15 -23 24 0 8 -5 15 -11 15
-7 0 -22 11 -35 26 -13 14 -24 23 -24 20 0 -3 -11 5 -25 18 -14 13 -25 31 -25
40 0 9 -8 16 -20 16 -12 0 -25 10 -32 25 -6 13 -15 22 -19 19 -5 -3 -9 -2 -9
3 0 4 -16 26 -35 47 -19 21 -39 54 -45 73 -8 22 -18 33 -31 33 -10 0 -19 4
-19 8 0 4 -16 25 -35 45 -19 20 -32 37 -27 37 4 0 2 4 -4 8 -5 4 -18 24 -28
45 -9 20 -28 47 -41 60 -13 12 -33 42 -46 67 -12 25 -40 68 -61 97 -22 29 -37
56 -34 61 3 6 -4 12 -15 15 -12 3 -18 10 -15 15 3 5 -3 17 -14 27 -11 10 -20
26 -20 37 0 10 -6 18 -13 18 -12 0 -57 76 -57 97 0 7 -10 24 -21 37 -23 27
-42 57 -59 95 -6 14 -26 45 -44 70 -18 25 -39 63 -45 84 -7 20 -17 37 -22 37
-14 0 -39 26 -39 39 0 6 -5 11 -11 11 -5 0 -7 5 -4 10 3 6 2 10 -3 10 -10 0
-35 38 -75 110 -11 19 -25 42 -33 51 -8 8 -14 25 -14 36 0 12 -7 23 -15 27 -8
3 -15 13 -15 23 0 10 -9 32 -19 50 -11 17 -23 49 -27 70 -4 21 -11 46 -15 55
-5 9 -11 87 -14 172 -7 192 -3 197 89 111 12 -11 48 -40 81 -65 32 -25 69 -54
82 -66 12 -11 52 -36 89 -55 37 -18 73 -40 81 -47 8 -8 16 -12 19 -10 11 12
10 111 -2 122 -6 7 -15 35 -18 62 -4 27 -14 78 -22 114 -8 36 -17 80 -20 99
-3 19 -10 46 -16 60 -5 14 -13 46 -18 71 -10 55 -17 84 -29 124 -5 17 -15 72
-22 121 -7 50 -17 93 -23 97 -6 4 -11 20 -11 35 0 15 -3 33 -7 38 -4 6 -9 29
-11 50 -3 22 -12 60 -20 85 -43 133 -61 230 -51 273 4 17 8 73 9 122 1 50 6
124 10 165 15 136 5 422 -17 464 -6 10 -12 82 -14 159 -3 77 -7 144 -9 148 -3
4 -14 51 -24 104 -11 53 -29 116 -41 140 -12 25 -22 65 -23 90 -1 25 -7 47
-14 50 -7 2 -13 13 -13 23 0 11 -11 30 -23 44 -15 16 -26 44 -30 72 -4 25 -16
64 -27 86 -11 22 -17 40 -14 40 4 0 0 8 -8 18 -9 9 -19 32 -23 50 -4 18 -11
30 -16 27 -4 -3 -11 6 -15 20 -3 14 -15 30 -25 36 -11 5 -17 14 -14 20 4 5 2
9 -3 9 -6 0 -15 14 -21 30 -11 34 -34 60 -51 60 -6 0 -9 4 -6 8 3 5 -4 15 -15
22 -10 8 -19 19 -19 25 0 6 -25 37 -55 69 -30 31 -55 59 -55 62 0 3 -20 25
-45 48 -25 24 -45 47 -45 51 0 10 -27 35 -39 35 -6 0 -24 14 -39 30 -16 17
-33 30 -38 30 -5 0 -15 9 -22 20 -7 11 -18 20 -25 20 -7 0 -20 11 -31 24 -10
14 -24 22 -32 19 -8 -3 -24 5 -36 17 -13 11 -26 20 -30 18 -3 -2 -16 9 -28 24
-11 15 -43 39 -70 54 -28 15 -50 31 -50 36 0 4 -11 8 -24 8 -16 0 -27 7 -31
20 -3 11 -13 20 -20 20 -15 0 -83 35 -100 51 -5 5 -17 9 -27 9 -10 0 -18 4
-18 8 0 7 -40 32 -60 37 -3 1 -23 9 -45 19 -66 29 -115 46 -115 38 0 -4 -4 -1
-8 5 -4 7 -17 14 -27 16 -11 2 -28 7 -37 11 -9 4 -22 9 -30 10 -7 2 -21 6 -30
11 -10 4 -29 8 -43 9 -14 0 -25 4 -25 7 0 7 -31 13 -115 26 -22 3 -42 9 -45
13 -15 23 -205 35 -486 32z m-1514 -6021 c0 -9 -65 -51 -79 -51 -7 0 2 17 20
38 24 28 38 36 47 29 6 -5 12 -12 12 -16z"/>
</g>
</svg>
